<?xml version="1.0" standalone="no"?>
<!DOCTYPE svg PUBLIC "-//W3C//DTD SVG 20010904//EN"
 "http://www.w3.org/TR/2001/REC-SVG-20010904/DTD/svg10.dtd">
<svg version="1.0" xmlns="http://www.w3.org/2000/svg"
 width="200.000000pt" height="200.000000pt" viewBox="0 0 200.000000 200.000000"
 preserveAspectRatio="xMidYMid meet">
<metadata>
Created by potrace 1.16, written by Peter Selinger 2001-2019
</metadata>
<g transform="translate(0.000000,200.000000) scale(0.100000,-0.100000)"
fill="#000000" stroke="none">
<path d="M639 1605 c-70 -17 -152 -53 -219 -97 -58 -37 -84 -80 -143 -238 -71
-190 -117 -421 -117 -586 l0 -92 65 -60 c97 -92 241 -152 361 -152 52 0 52 0
83 50 44 71 41 84 -21 113 -29 13 -64 34 -78 45 -23 19 -17 19 56 -8 119 -42
228 -60 374 -60 146 0 255 18 374 60 73 27 79 27 56 8 -14 -11 -49 -32 -77
-45 -63 -29 -66 -42 -22 -113 30 -49 31 -50 81 -50 120 0 266 61 363 152 l65
60 0 92 c0 213 -79 537 -180 736 -30 59 -82 100 -183 145 -113 49 -262 71
-287 40 -23 -28 -6 -47 63 -72 37 -14 66 -27 64 -29 -1 -2 -30 4 -62 14 -86
24 -424 24 -510 0 -32 -10 -61 -16 -62 -14 -2 2 27 15 64 29 69 25 86 44 63
72 -16 19 -94 18 -171 0z m-32 -82 c-119 -63 -209 -163 -148 -163 10 0 56 18
102 39 267 125 607 125 878 0 46 -22 92 -39 102 -39 61 0 -28 99 -148 164 -37
20 -57 34 -43 30 67 -18 136 -50 193 -87 61 -42 62 -43 108 -157 84 -209 125
-387 135 -575 l7 -121 -50 -45 c-65 -58 -153 -105 -234 -124 -96 -22 -116 -20
-134 14 -15 29 -14 29 26 51 87 45 179 142 179 189 0 31 -19 27 -133 -29 -119
-57 -231 -88 -357 -98 -193 -16 -367 16 -537 98 -115 56 -133 60 -133 28 0
-49 125 -173 203 -201 16 -6 17 -9 2 -37 -18 -36 -45 -38 -139 -14 -80 21
-166 67 -229 123 l-50 45 6 116 c8 183 53 373 138 585 37 92 49 112 83 137 51
37 106 65 171 89 76 27 77 22 2 -18z"/>
<path d="M791 1425 c-132 -29 -291 -94 -291 -120 0 -21 13 -19 73 11 126 64
264 95 427 95 103 0 233 -18 287 -38 11 -4 14 -1 11 13 -8 46 -352 72 -507 39z"/>
<path d="M660 1058 c-62 -42 -75 -71 -75 -158 0 -64 4 -84 21 -107 38 -51 81
-73 144 -73 63 0 106 22 144 73 17 23 21 43 21 107 0 87 -13 116 -75 158 -46
31 -134 31 -180 0z m148 -42 c82 -45 82 -187 0 -232 -30 -17 -86 -17 -116 0
-37 20 -62 66 -62 116 0 76 49 129 120 129 19 0 45 -5 58 -13z"/>
<path d="M1160 1058 c-62 -42 -75 -71 -75 -158 0 -64 4 -84 21 -107 38 -51 81
-73 144 -73 63 0 106 22 144 73 17 23 21 43 21 107 0 87 -13 116 -75 158 -46
31 -134 31 -180 0z m148 -42 c82 -45 82 -187 0 -232 -30 -17 -86 -17 -116 0
-37 20 -62 66 -62 116 0 76 49 129 120 129 19 0 45 -5 58 -13z"/>
</g>
</svg>
